{"title":"The Fault in Our Stars 2014 EXTENDED 480p HDRip XviD titler","uid":10803741,"size":1630108299,"categoryP":"video","categoryS":"movies","magnet":"?xt=urn:btih:1762125288b4763aa71dfd242c37e483b7d27f86&amp;dn=The+Fault+in+Our+Stars+2014+EXTENDED+480p+HDRip+XviD+titler&amp;tr=udp%3A%2F%2Ftracker.openbittorrent.com%3A80&amp;tr=udp%3A%2F%2Fopen.demonii.com%3A1337&amp;tr=udp%3A%2F%2Ftracker.coppersurfer.tk%3A6969&amp;tr=udp%3A%2F%2Fexodus.desync.com%3A6969","seeders":8,"leechers":0,"uploader":"movieZ.freak","files":4,"time":1408371073,"description":"SOURCE: The Fault in Our Stars 2014 EXTENDED 720p WEB-DL H264 AC3 - FAS\n\n\n\n &lt;a href=&quot;\nhttp://www.imdb.com/title/tt2582846/&quot; rel=&quot;nofollow&quot; target=&quot;_NEW&quot;&gt;\nhttp://www.imdb.com/title/tt2582846/&lt;/a&gt;\n\n\n\n &lt;a href=&quot;\nhttp://www.rottentomatoes.com/m/the_fault_in_our_stars/&quot; rel=&quot;nofollow&quot; target=&quot;_NEW&quot;&gt;\nhttp://www.rottentomatoes.com/m/the_fault_in_our_stars/&lt;/a&gt;\n\n\n\n &lt;a href=&quot;\nhttp://en.wikipedia.org/wiki/The_Fault_in_Our_Stars_%28film%29&quot; rel=&quot;nofollow&quot; target=&quot;_NEW&quot;&gt;\nhttp://en.wikipedia.org/wiki/The_Fault_in_Our_Stars_%28film%29&lt;/a&gt;\n\n\n\n\n- SAMPLE: Yes\n\n\n- SUBTITLE: No, not yet!\n\n\n- LANGUAGE / AUDIO: English\n\n\n\n\nNOTE:\n-----------\nExcellent source!!!\n\n\n\n\nSCREENSHOTS:\n-------------------    &lt;a href=&quot;\nhttp://someimage.com/wCJD&quot; rel=&quot;nofollow&quot; target=&quot;_NEW&quot;&gt;\nhttp://someimage.com/wCJD&lt;/a&gt;\n\n\nDIRECTOR: Josh Boone\n\n\n\nCAST: Shailene Woodley, Ansel Elgort, Nat Wolff, Laura Dern, Willem Dafoe, Sam Trammell, Lotte Verbeek,...\n\n\nPLOT:\n-----------\nHazel and Gus are two extraordinary teenagers who share an acerbic wit, a disdain for the conventional, and a love that sweeps them - and us - on an unforgettable journey. Their relationship is all the more miraculous, given that they met and fell in love at a cancer support group. THE FAULT IN OUR STARS, based upon the number-one bestselling novel by John Green, explores the funny, thrilling and tragic business of being alive and in love.\n\n\n************************************\n\n- Duration: 2h 13mn\n\n- Bit rate: 1477 Kbps\n\n- Res: 854 x 458\n\n- AR: 1.85:1\n\n- FPS: 23.976 fps\n\n- Audio: MP3, 2 channels, 128Kbps\n\n************************************\n\n\nGeneral\n---------------\nFormat : AVI\nFormat/Info : Audio Video Interleave\nFile size : 1.50 GiB\nDuration : 2h 13mn\nOverall bit rate : 1615 Kbps\nWriting library : VirtualDub build 35491\n\n\nVideo\n--------------\nFormat : MPEG-4 Visual\nFormat profile : Advanced Simple@L5\nFormat settings, BVOP : 2\nFormat settings, QPel : No\nFormat settings, GMC : No warppoints\nFormat settings, Matrix : Default (H.263)\nCodec ID : XVID\nCodec ID/Hint : XviD\nDuration : 2h 13mn\nBit rate : 1477 Kbps\nWidth : 854 pixels\nHeight : 458 pixels\nDisplay aspect ratio : 1.85:1\nFrame rate : 23.976 fps\nColor space : YUV\nChroma subsampling : 4:2:0\nBit depth : 8 bits\nScan type : Progressive\nCompression mode : Lossy\nBits/(Pixel*Frame) : 0.158\nStream size : 1.38 GiB (92%)\nWriting library : XviD 65\n\n\nAudio\n--------------\nFormat : MPEG Audio\nFormat version : Version 1\nFormat profile : Layer 3\nMode : Joint stereo\nMode extension : MS Stereo\nCodec ID : 55\nCodec ID/Hint : MP3\nDuration : 2h 12mn\nBit rate mode : Constant\nBit rate : 128 Kbps\nChannel(s) : 2 channels\nSampling rate : 48.0 KHz\nCompression mode : Lossy\nStream size : 122 MiB (8%)\nAlignment : Split accross interleaves\nInterleave, duration : 42 ms (1.00 video frame)\nInterleave, preload duration : 500 ms\nWriting library : LAME3.99r","torrent":{"xt":"urn:btih:1762125288b4763aa71dfd242c37e483b7d27f86","amp;dn":"The+Fault+in+Our+Stars+2014+EXTENDED+480p+HDRip+XviD+titler","amp;tr":["udp%3A%2F%2Ftracker.openbittorrent.com%3A80","udp%3A%2F%2Fopen.demonii.com%3A1337","udp%3A%2F%2Ftracker.coppersurfer.tk%3A6969","udp%3A%2F%2Fexodus.desync.com%3A6969"],"infoHash":"1762125288b4763aa71dfd242c37e483b7d27f86","infoHashBuffer":{"type":"Buffer","data":[23,98,18,82,136,180,118,58,167,29,253,36,44,55,228,131,183,210,127,134]},"announce":[],"urlList":[]}}